<?xml version="1.0" encoding="UTF-8"?>
<svg id="Layer_2" data-name="Layer 2" xmlns="http://www.w3.org/2000/svg" viewBox="0 0 860.07 733.32">
  <defs>
    <style>
      .cls-1 {
        fill: #ed1c34;
      }
    </style>
  </defs>
  <g id="Layer_1-2" data-name="Layer 1">
    <g>
      <path class="cls-1" d="M842.05,441.36c-91.28-131.9-248.87-208.02-406.72-192.18l-14.05,1.34v25.28s14.05,1.49,14.05,1.49c68.17,7.09,133.84,32.09,188.22,72.33,43.19,31.78,78.32,72.27,103.14,117-101.64,148.82-311.41,198.48-468.67,104.93-53.6-31.02-98.91-76.47-129.73-130.2l-28.6-49.85L0,448.77s28.61,49.85,28.61,49.85c179.43,312.92,633.94,312.95,813.43,0l18.02-31.41s-18.02-25.85-18.02-25.85Z"/>
      <path class="cls-1" d="M439.33,480.38v-18.62c-35.21-4.08-69.33-12.68-101.23-25.41-80.26-31.16-150.16-93.55-190.38-167.9,144.49-211.43,467.96-203.33,598.65,24.54l99.68-57.25c-40.85-71.23-100.65-131.23-171.68-172.37C435.36-74.77,136.34,21.75,14.42,267.44c92.28,144.73,254.85,231.98,424.9,212.94Z"/>
    </g>
  </g>
</svg>