<?xml version="1.0" encoding="utf-8"?>
<!DOCTYPE svg PUBLIC "-//W3C//DTD SVG 1.0//EN" "http://www.w3.org/TR/2001/REC-SVG-20010904/DTD/svg10.dtd">
<svg version="1.0" xmlns="http://www.w3.org/2000/svg" width="168px" height="168px" viewBox="0 0 168 168" preserveAspectRatio="xMidYMid meet">
 <g fill="#000000">
  <path d="M27.75 167.50 c-0.55 -0.25 -2 -0.45 -3.25 -0.50 -4.25 -0.10 -12.25 -2.50 -15.60 -4.75 -3.35 -2.25 -6.15 -7.90 -7.35 -15.05 -0.35 -1.90 -0.80 -4.70 -1.05 -6.25 -0.65 -3.70 -0.65 -20.05 0.05 -24.55 0.65 -4.55 1.90 -11.50 2.55 -14.15 0.25 -1.10 0.55 -2.65 0.70 -3.50 1.10 -6.65 4.80 -17.05 9.60 -26.75 9.80 -20 24.40 -36.75 43.15 -49.70 2.65 -1.80 5 -3.30 5.20 -3.30 0.15 0 1.25 -0.65 2.40 -1.40 6.05 -4.10 23.45 -11.45 29.85 -12.60 1.25 -0.25 3.15 -0.70 4.25 -1 2.10 -0.60 4.95 -1.20 10 -2 1.65 -0.25 4.25 -0.70 5.75 -1 4.10 -0.85 22.55 -1.20 26.75 -0.55 8.35 1.35 10.05 1.75 13.20 2.90 6.25 2.25 8.45 4.45 10.70 10.70 0.70 1.85 1.50 4.90 1.80 6.75 0.35 1.90 0.80 4.70 1.05 6.25 1.10 6.30 0.40 25.70 -1.05 29.20 -0.20 0.55 -0.50 2.45 -0.65 4.25 -0.45 5 -0.85 7.50 -1.35 7.80 -0.25 0.15 -0.45 0.80 -0.45 1.45 0 0.65 -0.20 1.35 -0.50 1.50 -0.25 0.15 -0.50 1.10 -0.50 2 0 4.25 -8.15 24.05 -12.60 30.60 -0.75 1.15 -1.40 2.25 -1.40 2.40 0 0.55 -6.25 9.50 -9.40 13.50 -3.05 3.85 -13.95 14.90 -19.10 19.35 -5.25 4.60 -10.90 8.65 -15 10.80 -13.10 7 -28.15 13.10 -32.25 13.10 -0.90 0 -1.80 0.20 -1.95 0.45 -0.15 0.25 -1 0.55 -1.90 0.70 -0.90 0.20 -2.90 0.55 -4.40 0.85 -1.50 0.30 -3.85 0.65 -5.25 0.80 -1.35 0.15 -2.95 0.45 -3.50 0.65 -3.30 1.40 -25.80 2.20 -28.50 1.05z"/>
 </g>
 <g fill="#ffffff">
  <path d="M27.75 167.50 c-0.55 -0.25 -2 -0.45 -3.25 -0.50 -4.25 -0.10 -12.25 -2.50 -15.60 -4.75 -3.35 -2.25 -6.15 -7.90 -7.35 -15.05 -0.35 -1.90 -0.80 -4.70 -1.05 -6.25 -0.65 -3.70 -0.65 -20.05 0.05 -24.55 0.65 -4.55 1.90 -11.50 2.55 -14.15 0.25 -1.10 0.55 -2.65 0.70 -3.50 1.10 -6.65 4.80 -17.05 9.60 -26.75 9.80 -20 24.40 -36.75 43.15 -49.70 2.65 -1.80 5 -3.30 5.20 -3.30 0.15 0 1.25 -0.65 2.40 -1.40 6.05 -4.10 23.45 -11.45 29.85 -12.60 1.25 -0.25 3.15 -0.70 4.25 -1 2.10 -0.60 4.95 -1.20 10 -2 1.65 -0.25 4.25 -0.70 5.75 -1 4.10 -0.85 22.55 -1.20 26.75 -0.55 8.35 1.35 10.05 1.75 13.20 2.90 6.25 2.25 8.45 4.45 10.70 10.70 0.70 1.85 1.50 4.90 1.80 6.75 0.35 1.90 0.80 4.70 1.05 6.25 1.10 6.30 0.40 25.70 -1.05 29.20 -0.20 0.55 -0.50 2.45 -0.65 4.25 -0.45 5 -0.85 7.50 -1.35 7.80 -0.25 0.15 -0.45 0.80 -0.45 1.45 0 0.65 -0.20 1.35 -0.50 1.50 -0.25 0.15 -0.50 1.10 -0.50 2 0 4.25 -8.15 24.05 -12.60 30.60 -0.75 1.15 -1.40 2.25 -1.40 2.40 0 0.55 -6.30 9.55 -9.45 13.50 -5.25 6.65 -18.65 19.75 -20.15 19.75 -0.30 0 -2.60 -2 -5.05 -4.50 -2.50 -2.45 -4.65 -4.50 -4.80 -4.50 -0.20 0 -3.75 3.45 -7.95 7.65 l-7.65 7.65 3.40 3.30 3.40 3.25 -5.25 2.55 c-9.10 4.40 -19.30 8.10 -22.25 8.10 -0.90 0 -1.80 0.20 -1.95 0.45 -0.15 0.25 -1 0.55 -1.90 0.70 -0.90 0.20 -2.90 0.55 -4.40 0.85 -1.50 0.30 -3.85 0.65 -5.25 0.80 -1.35 0.15 -2.95 0.45 -3.50 0.65 -3.30 1.40 -25.80 2.20 -28.50 1.05z m70.70 -33.25 l7.70 -7.75 -1.20 -0.90 c-2.10 -1.65 -4.40 -2.20 -6.40 -1.55 -1.95 0.60 -9.10 7.25 -10.35 9.55 -0.85 1.60 -0.90 4.05 -0.15 5.55 0.70 1.35 2 2.85 2.45 2.85 0.15 0 3.75 -3.50 7.95 -7.75z m-33.40 2.05 c2.65 -0.35 5.25 -0.95 5.85 -1.25 0.55 -0.30 1.35 -0.55 1.80 -0.55 0.70 0 5.20 -2.05 9.05 -4.15 2.80 -1.55 10.65 -9.60 12.70 -13 3.60 -6.10 5.45 -12 5.85 -18.85 1.20 -18.35 -10.15 -35.15 -27.70 -41.10 -3.65 -1.25 -5.40 -1.55 -11 -1.75 l-6.65 -0.30 0.15 4.35 0.15 4.30 5.75 0.20 c5.90 0.20 8.95 1 13.70 3.40 7.55 3.85 13.40 11.10 16.20 20.15 1.10 3.45 1.05 13.10 -0.05 16.65 -3.75 12.15 -12.45 20.25 -24.85 23.10 -12.30 2.85 -26.55 -3.35 -33.40 -14.65 -3.25 -5.25 -4.25 -8.65 -4.50 -15.45 -0.25 -6.45 0.55 -10.75 2.70 -15 1.10 -2.15 1.20 -3 1.20 -9.20 l0 -6.85 -1.30 1.20 c-2.15 2 -5.95 7.50 -7.60 11 -2.25 4.65 -4.10 12.50 -4.10 17.45 0 7.70 3.55 18.30 8.10 24.20 3.80 4.85 8.95 9.25 14.15 12.10 2.55 1.35 9.35 3.45 13 4 5.40 0.75 5.35 0.75 10.80 0z m-1.65 -13.60 l2.60 -0.35 0 -24.70 0 -24.70 -1.30 -1.20 c-1.20 -1.10 -1.80 -1.25 -5 -1.25 -3.15 0 -3.85 0.15 -5.05 1.20 l-1.40 1.20 0 24.70 0 24.65 1.75 0.30 c2.50 0.45 5.35 0.50 8.40 0.15z m-13.15 -69 c-0.50 -2.75 -1.80 -3.45 -6.55 -3.45 -3.65 0 -4.30 0.15 -5.30 1.15 l-1.15 1.15 -0.15 29.15 -0.10 29.20 2.55 2.85 c2.75 2.95 6.05 5.50 8.95 6.80 l1.75 0.75 0.15 -33 c0.05 -18.20 0 -33.75 -0.15 -34.60z m24 65.10 c0.85 -0.55 2.90 -2.35 4.65 -4 l3.10 -2.95 0 -11.35 0 -11.35 -1.30 -1.35 c-1.20 -1.15 -1.70 -1.30 -5.05 -1.30 -3.45 0 -3.85 0.10 -5.20 1.45 l-1.45 1.45 0 16.05 0 16.05 1.90 -0.85 c1 -0.50 2.55 -1.30 3.35 -1.85z m25.80 -51.30 c0.95 -0.25 2.40 -1.15 3.15 -1.95 1.75 -1.85 2 -5.45 0.55 -7.90 -1.15 -2 -4.25 -3.35 -6.60 -2.90 -6.60 1.20 -7.30 10.85 -0.90 12.70 2 0.60 1.75 0.60 3.80 0.05z m54.30 -0.85 c1.75 -1.15 2.65 -2.95 2.65 -5.45 0 -4.80 -4.20 -7.70 -8.70 -6 -2.90 1.10 -4 2.80 -4 6.15 0 2.30 0.20 2.85 1.65 4.35 2.30 2.35 5.65 2.75 8.40 0.95z m-64.35 -13.95 c0 -0.35 -0.35 -0.75 -0.80 -0.90 -0.85 -0.35 -9.15 -6.20 -9.95 -7.10 -0.25 -0.25 -1.40 -1.10 -2.55 -1.80 l-2.05 -1.30 -1.35 1.50 c-0.75 0.85 -1.25 1.60 -1.20 1.65 0.10 0.05 3.65 2.60 7.85 5.70 l7.75 5.55 1.15 -1.35 c0.60 -0.80 1.10 -1.65 1.15 -1.95z m23.45 -3.75 l5.55 -5.55 -1.35 -1.10 c-0.75 -0.55 -1.55 -1.05 -1.75 -1.05 -0.20 0 -2.70 2.35 -5.65 5.20 l-5.30 5.20 1.40 1.45 c0.75 0.75 1.40 1.40 1.45 1.40 0.05 0 2.60 -2.50 5.65 -5.55z m29.55 3.70 l1.40 -1.30 -4.55 -4.95 c-2.50 -2.70 -4.80 -4.90 -5.10 -4.90 -0.35 0 -1.10 0.55 -1.70 1.20 l-1.15 1.20 4.65 5.05 c2.50 2.80 4.70 5.05 4.80 5.05 0.15 0 0.90 -0.60 1.65 -1.35z m-76.65 -10.15 c1.20 0 3.65 -2.60 4.15 -4.40 1.45 -5.40 -4.15 -10.25 -9 -7.75 -2.10 1.10 -4 3.80 -4 5.75 0 1.65 1.25 4.35 2.45 5.25 1.15 0.90 3.65 1.60 4.80 1.35 0.55 -0.10 1.25 -0.20 1.60 -0.20z m61.05 -2.30 c1 -0.40 2.45 -1.35 3.25 -2.05 1.15 -1.15 1.35 -1.75 1.35 -4.15 0 -2.50 -0.15 -2.95 -1.60 -4.35 -2.55 -2.35 -4.55 -2.85 -7.15 -1.70 -5.45 2.40 -5.60 9.25 -0.25 11.95 2.65 1.30 2.10 1.25 4.40 0.30z"/>
  <path d="M115.80 142.25 c1.05 -0.95 2.15 -1.70 2.35 -1.75 0.25 0 -0.50 0.80 -1.65 1.75 -2.70 2.25 -3.25 2.30 -0.70 0z"/>
 </g>
</svg>